# xmcd
#
# Track frame offsets:
#	150
#	8484
#	22698
#	47237
#	63416
#	78718
#	94140
#	106066
#	122073
#	139932
#
# Disc length: 2063 seconds
#
# Revision: 0
# Processed by: cddbd v1.5.2PL0 Copyright (c) Steve Scherf et al.
# Submitted via: dBpowerAMP V4.0
#
DISCID=77080d0a
DTITLE=Dixie Melody Boys - A Seat In The Heavenly Choir
DYEAR=2004
DGENRE=Southern Gospel
TTITLE0=I'm Going Up
TTITLE1=Sweet By And By
TTITLE2=Cry From The Cross
TTITLE3=I've Gotta Cloud
TTITLE4=Jesus Pilots My Ship
TTITLE5=God's Still God
TTITLE6=I'm Gonna Stand
TTITLE7=Springtime In Heaven
TTITLE8=He's Comming In The Clouds
TTITLE9=Anchor Of Hope
EXTD=
EXTT0=
EXTT1=
EXTT2=
EXTT3=
EXTT4=
EXTT5=
EXTT6=
EXTT7=
EXTT8=
EXTT9=
PLAYORDER=
